<?xml version="1.0" encoding="utf-8"?><!-- Uploaded to: SVG Repo, www.svgrepo.com, Generator: SVG Repo Mixer Tools -->
<svg width="700px" height="700px" viewBox="0 0 36 36" version="1.1"  preserveAspectRatio="xMidYMid meet" xmlns="http://www.w3.org/2000/svg" xmlns:xlink="http://www.w3.org/1999/xlink">
    <title>bubble-chart-line</title>
    <path class="clr-i-outline clr-i-outline-path-1" d="M 32 5 L 4 5 C 2.895 5 2 5.895 2 7 L 2 29 C 2 30.105 2.895 31 4 31 L 32 31 C 33.105 31 34 30.105 34 29 L 34 7 C 34 5.895 33.105 5 32 5 Z M 4 29 L 4 7 L 32 7 L 32 29 Z" fill="#2D3E50" stroke="#2D3E50" stroke-width="0.5"/>
    
    <!-- Row 1 - Medium bubbles -->
    <g transform="translate(-5, 2.5)">
        <path d="M 29 18 C 29 19.657 27.657 21 26 21 C 24.343 21 23 19.657 23 18 C 23 16.343 24.343 15 26 15 C 27.657 15 29 16.343 29 18 Z M 26 16.6 C 25.227 16.6 24.6 17.227 24.6 18 C 24.6 18.773 25.227 19.4 26 19.4 C 26.773 19.4 27.4 18.773 27.4 18 C 27.4 17.227 26.773 16.6 26 16.6 Z" class="clr-i-outline clr-i-outline-path-2" rx="3" fill="#F1C40F" transform="translate(4, 0) scale(0.4)"/>
        <path d="M 29 18 C 29 19.657 27.657 21 26 21 C 24.343 21 23 19.657 23 18 C 23 16.343 24.343 15 26 15 C 27.657 15 29 16.343 29 18 Z M 26 16.6 C 25.227 16.6 24.6 17.227 24.6 18 C 24.6 18.773 25.227 19.4 26 19.4 C 26.773 19.4 27.4 18.773 27.4 18 C 27.4 17.227 26.773 16.6 26 16.6 Z" class="clr-i-outline clr-i-outline-path-2" rx="3" fill="#E67E22" transform="translate(10, 0) scale(0.4)"/>
        <path d="M 29 18 C 29 19.657 27.657 21 26 21 C 24.343 21 23 19.657 23 18 C 23 16.343 24.343 15 26 15 C 27.657 15 29 16.343 29 18 Z M 26 16.6 C 25.227 16.6 24.6 17.227 24.6 18 C 24.6 18.773 25.227 19.4 26 19.4 C 26.773 19.4 27.4 18.773 27.4 18 C 27.4 17.227 26.773 16.6 26 16.6 Z" class="clr-i-outline clr-i-outline-path-2" rx="3" fill="#E74C3C" transform="translate(16, 0) scale(0.4)"/>
        <path d="M 29 18 C 29 19.657 27.657 21 26 21 C 24.343 21 23 19.657 23 18 C 23 16.343 24.343 15 26 15 C 27.657 15 29 16.343 29 18 Z M 26 16.6 C 25.227 16.6 24.6 17.227 24.6 18 C 24.6 18.773 25.227 19.4 26 19.4 C 26.773 19.4 27.4 18.773 27.4 18 C 27.4 17.227 26.773 16.6 26 16.6 Z" class="clr-i-outline clr-i-outline-path-2" rx="3" fill="#F1C40F" transform="translate(22, 0) scale(0.4)"/>
    </g>

    <!-- Row 2 - Medium bubbles -->
    <g transform="translate(-5, 10)">
        <path d="M 29 18 C 29 19.657 27.657 21 26 21 C 24.343 21 23 19.657 23 18 C 23 16.343 24.343 15 26 15 C 27.657 15 29 16.343 29 18 Z M 26 16.6 C 25.227 16.6 24.6 17.227 24.6 18 C 24.6 18.773 25.227 19.4 26 19.4 C 26.773 19.4 27.4 18.773 27.4 18 C 27.4 17.227 26.773 16.6 26 16.6 Z" class="clr-i-outline clr-i-outline-path-2" rx="3" fill="#F1C40F" transform="translate(4, 0) scale(0.4)"/>
        <path d="M 29 18 C 29 19.657 27.657 21 26 21 C 24.343 21 23 19.657 23 18 C 23 16.343 24.343 15 26 15 C 27.657 15 29 16.343 29 18 Z M 26 16.6 C 25.227 16.6 24.6 17.227 24.6 18 C 24.6 18.773 25.227 19.4 26 19.4 C 26.773 19.4 27.4 18.773 27.4 18 C 27.4 17.227 26.773 16.6 26 16.6 Z" class="clr-i-outline clr-i-outline-path-2" rx="3" fill="#E67E22" transform="translate(10, 0) scale(0.4)"/>
        <path d="M 29 18 C 29 19.657 27.657 21 26 21 C 24.343 21 23 19.657 23 18 C 23 16.343 24.343 15 26 15 C 27.657 15 29 16.343 29 18 Z M 26 16.6 C 25.227 16.6 24.6 17.227 24.6 18 C 24.6 18.773 25.227 19.4 26 19.4 C 26.773 19.4 27.4 18.773 27.4 18 C 27.4 17.227 26.773 16.6 26 16.6 Z" class="clr-i-outline clr-i-outline-path-2" rx="3" fill="#E74C3C" transform="translate(16, 0) scale(0.4)"/>
        <path d="M 29 18 C 29 19.657 27.657 21 26 21 C 24.343 21 23 19.657 23 18 C 23 16.343 24.343 15 26 15 C 27.657 15 29 16.343 29 18 Z M 26 16.6 C 25.227 16.6 24.6 17.227 24.6 18 C 24.6 18.773 25.227 19.4 26 19.4 C 26.773 19.4 27.4 18.773 27.4 18 C 27.4 17.227 26.773 16.6 26 16.6 Z" class="clr-i-outline clr-i-outline-path-2" rx="3" fill="#F1C40F" transform="translate(22, 0) scale(0.4)"/>
    </g>

    <!-- Row 3 - Medium bubbles -->
    <g transform="translate(-5, 18)">
        <path d="M 29 18 C 29 19.657 27.657 21 26 21 C 24.343 21 23 19.657 23 18 C 23 16.343 24.343 15 26 15 C 27.657 15 29 16.343 29 18 Z M 26 16.6 C 25.227 16.6 24.6 17.227 24.6 18 C 24.6 18.773 25.227 19.4 26 19.4 C 26.773 19.4 27.4 18.773 27.4 18 C 27.4 17.227 26.773 16.6 26 16.6 Z" class="clr-i-outline clr-i-outline-path-2" rx="3" fill="#F1C40F" transform="translate(4, 0) scale(0.4)"/>
        <path d="M 29 18 C 29 19.657 27.657 21 26 21 C 24.343 21 23 19.657 23 18 C 23 16.343 24.343 15 26 15 C 27.657 15 29 16.343 29 18 Z M 26 16.6 C 25.227 16.6 24.6 17.227 24.6 18 C 24.6 18.773 25.227 19.4 26 19.4 C 26.773 19.4 27.4 18.773 27.4 18 C 27.4 17.227 26.773 16.6 26 16.6 Z" class="clr-i-outline clr-i-outline-path-2" rx="3" fill="#E67E22" transform="translate(10, 0) scale(0.4)"/>
        <path d="M 29 18 C 29 19.657 27.657 21 26 21 C 24.343 21 23 19.657 23 18 C 23 16.343 24.343 15 26 15 C 27.657 15 29 16.343 29 18 Z M 26 16.6 C 25.227 16.6 24.6 17.227 24.6 18 C 24.6 18.773 25.227 19.4 26 19.4 C 26.773 19.4 27.4 18.773 27.4 18 C 27.4 17.227 26.773 16.6 26 16.6 Z" class="clr-i-outline clr-i-outline-path-2" rx="3" fill="#E74C3C" transform="translate(16, 0) scale(0.4)"/>
        <path d="M 29 18 C 29 19.657 27.657 21 26 21 C 24.343 21 23 19.657 23 18 C 23 16.343 24.343 15 26 15 C 27.657 15 29 16.343 29 18 Z M 26 16.6 C 25.227 16.6 24.6 17.227 24.6 18 C 24.6 18.773 25.227 19.4 26 19.4 C 26.773 19.4 27.4 18.773 27.4 18 C 27.4 17.227 26.773 16.6 26 16.6 Z" class="clr-i-outline clr-i-outline-path-2" rx="3" fill="#F1C40F" transform="translate(22, 0) scale(0.4)"/>
    </g>

    <rect x="0" y="0" width="36" height="36" fill-opacity="0"/>
</svg>